<svg width="50" height="58" viewBox="0 0 50 58" fill="none" xmlns="http://www.w3.org/2000/svg">
<circle cx="25" cy="27" r="25" fill="white"/>
<path d="M15.1484 41.3125C14.6016 41 14.125 40.6719 13.7188 40.3281C13.3281 39.9844 13.1328 39.6172 13.1328 39.2266C13.1328 38.4766 13.4531 38.1016 14.0938 38.1016C14.5156 38.1016 14.9844 38.3359 15.5 38.8047C16.0156 39.2734 16.5938 39.6875 17.2344 40.0469C17.875 40.3906 18.5703 40.6875 19.3203 40.9375C20.8672 41.4531 22.2969 41.7109 23.6094 41.7109C24.9219 41.7109 25.9297 41.625 26.6328 41.4531C27.3516 41.2812 27.9531 41.0469 28.4375 40.75C29.4688 40.1094 29.9844 39.2891 29.9844 38.2891C29.9844 37.3672 29.5391 36.4375 28.6484 35.5C27.8984 34.7031 26.8359 33.75 25.4609 32.6406L21.4531 29.5C17.4375 26.4062 15.0703 23.5781 14.3516 21.0156C14.1016 20.125 13.9766 19.1328 13.9766 18.0391C13.9766 16.9453 14.2188 15.8672 14.7031 14.8047C15.2031 13.7422 15.9375 12.8125 16.9062 12.0156C18.9844 10.2812 21.8125 9.41406 25.3906 9.41406C27.2188 9.41406 28.8594 9.6875 30.3125 10.2344C31.7656 10.7656 32.7578 11.2422 33.2891 11.6641C33.8203 12.0859 34.0859 12.4687 34.0859 12.8125C34.0859 13.5313 33.7891 13.8906 33.1953 13.8906C32.8516 13.8906 32.4844 13.7188 32.0938 13.375C31.7031 13.0312 31.2656 12.7344 30.7812 12.4844C30.3125 12.2188 29.7734 11.9844 29.1641 11.7812C27.8516 11.3437 26.5625 11.125 25.2969 11.125C22.9688 11.125 21.8047 11.8906 21.8047 13.4219C21.8047 14.0625 22.0156 14.6563 22.4375 15.2031C23.1875 16.1562 24.6484 17.5234 26.8203 19.3047C29.0078 21.0703 30.7578 22.6172 32.0703 23.9453C33.3984 25.2734 34.4062 26.4688 35.0938 27.5312C36.1875 29.2031 36.7344 30.9453 36.7344 32.7578C36.7344 34.5547 36.4141 36.0859 35.7734 37.3516C35.1484 38.6016 34.2656 39.6797 33.125 40.5859C30.7188 42.4922 27.7344 43.4453 24.1719 43.4453C20.6094 43.4453 17.6016 42.7344 15.1484 41.3125Z" fill="#111100"/>
</svg>
