<svg width="257" height="60" viewBox="0 0 257 60" fill="none" xmlns="http://www.w3.org/2000/svg">
<path d="M71.3984 20.5234C71.0078 20.2734 70.5859 20.1484 70.1328 20.1484C69.6797 20.1484 69.2109 20.2578 68.7266 20.4766C68.2422 20.6797 67.7344 20.9688 67.2031 21.3438C66.0938 22.1406 65.0703 23.2031 64.1328 24.5312V43H54.0547V17.9688H64.1328V21.9766C66.8047 19.0234 69.8281 17.5469 73.2031 17.5469C78.7188 17.5469 81.4766 20.2188 81.4766 25.5625V43H71.3984V20.5234ZM110.914 37.3047C111.523 37.3047 111.828 37.5859 111.828 38.1484C111.828 38.5703 111.555 39.0703 111.008 39.6484C108.539 42.1797 105.156 43.4453 100.859 43.4453C97 43.4453 93.75 42.2812 91.1094 39.9531C88.375 37.5312 87.0078 34.4688 87.0078 30.7656C87.0078 26.9844 88.2422 23.875 90.7109 21.4375C93.3203 18.8438 96.7891 17.5469 101.117 17.5469C104.586 17.5469 107.5 18.6016 109.859 20.7109C112.406 22.9766 113.68 25.9531 113.68 29.6406C113.68 30.1719 113.664 30.7344 113.633 31.3281H98.1641V41.3828C99.2266 41.6016 100.422 41.7109 101.75 41.7109C104.562 41.7109 106.961 40.7812 108.945 38.9219C109.352 38.5156 109.641 38.1953 109.812 37.9609C110.172 37.5234 110.539 37.3047 110.914 37.3047ZM104.656 19.7031C103.641 19.4062 102.492 19.2578 101.211 19.2578C99.9297 19.2578 98.9141 19.3438 98.1641 19.5156V29.6172H104.656V19.7031ZM135.312 41.4531C133.312 42.7812 131.094 43.4453 128.656 43.4453C125.422 43.4453 122.828 42.6328 120.875 41.0078C118.844 39.3359 117.828 37.0156 117.828 34.0469C117.828 31.4219 118.836 29.2656 120.852 27.5781C122.914 25.875 125.625 25.0234 128.984 25.0234C131.234 25.0234 133.344 25.4531 135.312 26.3125V19.8672C133.891 19.4609 132.633 19.2578 131.539 19.2578C130.461 19.2578 129.547 19.3047 128.797 19.3984C128.047 19.4922 127.336 19.6328 126.664 19.8203C125.211 20.2266 124.109 20.7734 123.359 21.4609C122.922 21.8672 122.523 22.0703 122.164 22.0703C121.805 22.0703 121.531 21.9844 121.344 21.8125C121.156 21.625 121.062 21.4219 121.062 21.2031C121.062 20.9844 121.102 20.7891 121.18 20.6172C121.258 20.4297 121.406 20.2422 121.625 20.0547C122.094 19.6484 122.875 19.2422 123.969 18.8359C126.234 17.9766 128.508 17.5469 130.789 17.5469C137.727 17.5469 142.156 19.2031 144.078 22.5156C144.922 23.9844 145.344 25.9141 145.344 28.3047V43H135.312V41.4531ZM135.312 28.1406C133.344 27.1875 131.383 26.7109 129.43 26.7109C129.117 26.7109 128.82 26.7344 128.539 26.7812V41.6875C128.617 41.7031 128.703 41.7109 128.797 41.7109C128.891 41.7109 128.984 41.7109 129.078 41.7109C131.219 41.7109 133.297 40.9531 135.312 39.4375V28.1406ZM152.68 9.83594H162.758V27.7188L172.625 20.5703C173.562 19.8672 174.312 19.1875 174.875 18.5312C175.438 17.875 175.914 17.5469 176.305 17.5469C177.008 17.5469 177.359 17.8359 177.359 18.4141C177.359 18.8516 177.094 19.2891 176.562 19.7266L170.586 24.3438L179.211 43H168.734L162.758 29.7812V43H152.68V9.83594ZM205.227 37.3047C205.836 37.3047 206.141 37.5859 206.141 38.1484C206.141 38.5703 205.867 39.0703 205.32 39.6484C202.852 42.1797 199.469 43.4453 195.172 43.4453C191.312 43.4453 188.062 42.2812 185.422 39.9531C182.688 37.5312 181.32 34.4688 181.32 30.7656C181.32 26.9844 182.555 23.875 185.023 21.4375C187.633 18.8438 191.102 17.5469 195.43 17.5469C198.898 17.5469 201.812 18.6016 204.172 20.7109C206.719 22.9766 207.992 25.9531 207.992 29.6406C207.992 30.1719 207.977 30.7344 207.945 31.3281H192.477V41.3828C193.539 41.6016 194.734 41.7109 196.062 41.7109C198.875 41.7109 201.273 40.7812 203.258 38.9219C203.664 38.5156 203.953 38.1953 204.125 37.9609C204.484 37.5234 204.852 37.3047 205.227 37.3047ZM198.969 19.7031C197.953 19.4062 196.805 19.2578 195.523 19.2578C194.242 19.2578 193.227 19.3438 192.477 19.5156V29.6172H198.969V19.7031ZM213.945 17.9688H224.023V25.3281C225.102 22.6562 226.258 20.6953 227.492 19.4453C228.742 18.1797 229.992 17.5469 231.242 17.5469C231.945 17.5469 232.5 17.7344 232.906 18.1094C233.328 18.4688 233.539 18.875 233.539 19.3281C233.539 19.7812 233.477 20.1406 233.352 20.4062C233.227 20.6719 233.062 20.8984 232.859 21.0859C232.438 21.4766 232.039 21.6719 231.664 21.6719C231.07 21.6719 230.633 21.6094 230.352 21.4844C229.867 21.2656 229.438 21.1562 229.062 21.1562C228.688 21.1562 228.211 21.4609 227.633 22.0703C227.055 22.6641 226.5 23.4922 225.969 24.5547C224.672 27.1484 224.023 29.9609 224.023 32.9922V43H213.945V17.9688ZM234.758 39.8594C234.758 39.625 234.836 39.4141 234.992 39.2266C235.164 39.0234 235.383 38.9219 235.648 38.9219C235.914 38.9219 236.133 39 236.305 39.1562C236.305 39.1562 236.5 39.3359 236.891 39.6953C238.516 41.1172 240.789 41.8281 243.711 41.8281C245.68 41.8281 246.945 41.4219 247.508 40.6094C247.664 40.3906 247.742 40.1719 247.742 39.9531C247.742 39.7188 247.695 39.5 247.602 39.2969C247.523 39.0781 247.344 38.8203 247.062 38.5234C246.781 38.2109 246.383 37.8438 245.867 37.4219L243.805 35.7578C240.398 33.1016 238.062 30.9453 236.797 29.2891C235.641 27.7734 235.062 26.2266 235.062 24.6484C235.062 22.6641 235.977 21 237.805 19.6562C239.695 18.25 242.141 17.5469 245.141 17.5469C247.25 17.5469 248.914 17.7891 250.133 18.2734C251.352 18.7578 252.211 19.2031 252.711 19.6094C253.211 20 253.461 20.3594 253.461 20.6875C253.461 21.3594 253.195 21.6953 252.664 21.6953C252.414 21.6953 252.18 21.6094 251.961 21.4375C251.758 21.25 251.344 20.9453 250.719 20.5234C250.094 20.0859 249.266 19.7422 248.234 19.4922C247.203 19.2422 246.242 19.1172 245.352 19.1172C244.461 19.1172 243.828 19.2578 243.453 19.5391C243.094 19.8203 242.914 20.1016 242.914 20.3828C242.914 20.6484 242.969 20.9062 243.078 21.1562C243.188 21.3906 243.391 21.6719 243.688 22C244.375 22.8125 245.477 23.7734 246.992 24.8828C248.508 25.9922 249.789 27.0078 250.836 27.9297C251.883 28.8516 252.703 29.7031 253.297 30.4844C254.375 31.8906 254.914 33.3125 254.914 34.75C254.914 36.1875 254.648 37.4219 254.117 38.4531C253.586 39.4688 252.828 40.3438 251.844 41.0781C249.766 42.6562 246.992 43.4453 243.523 43.4453C240.742 43.4453 238.422 42.9141 236.562 41.8516C235.359 41.1797 234.758 40.5156 234.758 39.8594Z" fill="#111100"/>
<circle cx="25" cy="29" r="25" fill="#111100"/>
<path d="M15.1484 43.3125C14.6016 43 14.125 42.6719 13.7188 42.3281C13.3281 41.9844 13.1328 41.6172 13.1328 41.2266C13.1328 40.4766 13.4531 40.1016 14.0938 40.1016C14.5156 40.1016 14.9844 40.3359 15.5 40.8047C16.0156 41.2734 16.5938 41.6875 17.2344 42.0469C17.875 42.3906 18.5703 42.6875 19.3203 42.9375C20.8672 43.4531 22.2969 43.7109 23.6094 43.7109C24.9219 43.7109 25.9297 43.625 26.6328 43.4531C27.3516 43.2812 27.9531 43.0469 28.4375 42.75C29.4688 42.1094 29.9844 41.2891 29.9844 40.2891C29.9844 39.3672 29.5391 38.4375 28.6484 37.5C27.8984 36.7031 26.8359 35.75 25.4609 34.6406L21.4531 31.5C17.4375 28.4062 15.0703 25.5781 14.3516 23.0156C14.1016 22.125 13.9766 21.1328 13.9766 20.0391C13.9766 18.9453 14.2188 17.8672 14.7031 16.8047C15.2031 15.7422 15.9375 14.8125 16.9062 14.0156C18.9844 12.2812 21.8125 11.4141 25.3906 11.4141C27.2188 11.4141 28.8594 11.6875 30.3125 12.2344C31.7656 12.7656 32.7578 13.2422 33.2891 13.6641C33.8203 14.0859 34.0859 14.4687 34.0859 14.8125C34.0859 15.5313 33.7891 15.8906 33.1953 15.8906C32.8516 15.8906 32.4844 15.7188 32.0938 15.375C31.7031 15.0312 31.2656 14.7344 30.7812 14.4844C30.3125 14.2188 29.7734 13.9844 29.1641 13.7812C27.8516 13.3437 26.5625 13.125 25.2969 13.125C22.9688 13.125 21.8047 13.8906 21.8047 15.4219C21.8047 16.0625 22.0156 16.6562 22.4375 17.2031C23.1875 18.1562 24.6484 19.5234 26.8203 21.3047C29.0078 23.0703 30.7578 24.6172 32.0703 25.9453C33.3984 27.2734 34.4062 28.4688 35.0938 29.5312C36.1875 31.2031 36.7344 32.9453 36.7344 34.7578C36.7344 36.5547 36.4141 38.0859 35.7734 39.3516C35.1484 40.6016 34.2656 41.6797 33.125 42.5859C30.7188 44.4922 27.7344 45.4453 24.1719 45.4453C20.6094 45.4453 17.6016 44.7344 15.1484 43.3125Z" fill="white"/>
</svg>
