<svg width="411" height="320" viewBox="0 0 411 320" fill="none" xmlns="http://www.w3.org/2000/svg">
<path d="M-32 32L-20.6302 64C-9.32188 96 13.4792 160 36.2188 181.3C58.774 203 81.6979 181 104.438 181.3C126.87 181 149.302 203 172.042 197.3C194.904 192 217.521 160 240.26 170.7C263 181 285.74 235 308.479 266.7C331.096 299 353.958 309 376.698 272C399.13 235 421.562 149 444.302 101.3C467.226 53 489.781 43 512.521 53.3C535.322 64 558 96 580.74 106.7C603.356 117 626.219 107 648.958 128C671.452 149 694.438 203 716.562 186.7C739.548 171 762.042 85 784.781 74.7C807.644 64 830.26 128 841.938 160L853 192V0H841.63C830.322 0 807.521 0 784.781 0C762.226 0 739.302 0 716.562 0C694.13 0 671.698 0 648.958 0C626.096 0 603.479 0 580.74 0C558 0 535.26 0 512.521 0C489.904 0 467.042 0 444.302 0C421.87 0 399.438 0 376.698 0C353.774 0 331.219 0 308.479 0C285.678 0 263 0 240.26 0C217.644 0 194.781 0 172.042 0C149.548 0 126.562 0 104.438 0C81.4521 0 58.9583 0 36.2188 0C13.3562 0 -9.26042 0 -20.9375 0H-32V32Z" fill="#111100"/>
</svg>
